PathFileType	4	(X/Y/Z)	Kaydara																																																																																																																									
DataRate	CameraRate	NumFrames	NumMarkers	Units	OrigDataRate	OrigDataStartFrame	OrigNumFrames																																																																																																																					
30	30	4	41	mm	30	1	372																																																																																																																					
Frame#	Time	NABA_LFHD			NABA_RFHD			NABA_LBHD			NABA_RBHD			NABA_LFTShould			NABA_RFTShould			NABA_LRRShould			NABA_RRRShould			NABA_T10			NABA_STRN			NABA_TRUN			NABA_LSHO			NABA_LUPA			NABA_LELB			NABA_LFRM			NABA_LWRA			NABA_LWRB			NABA_LFIN			NABA_RSHO			NABA_RUPA			NABA_RELB			NABA_RFRM			NABA_RWRA			NABA_RWRB			NABA_RFIN			NABA_LFWT			NABA_RFWT			NABA_LBWT			NABA_RBWT			NABA_LTHI			NABA_LKNE			NABA_LSHN			NABA_LANK			NABA_LHEE			NABA_LTOE			NABA_RTHI			NABA_RKNE			NABA_RSHN			NABA_RANK			NABA_RHEE			NABA_RTOE		
		X1	Y1	Z1	X2	Y2	Z2	X3	Y3	Z3	X4	Y4	Z4	X5	Y5	Z5	X6	Y6	Z6	X7	Y7	Z7	X8	Y8	Z8	X9	Y9	Z9	X10	Y10	Z10	X11	Y11	Z11	X12	Y12	Z12	X13	Y13	Z13	X14	Y14	Z14	X15	Y15	Z15	X16	Y16	Z16	X17	Y17	Z17	X18	Y18	Z18	X19	Y19	Z19	X20	Y20	Z20	X21	Y21	Z21	X22	Y22	Z22	X23	Y23	Z23	X24	Y24	Z24	X25	Y25	Z25	X26	Y26	Z26	X27	Y27	Z27	X28	Y28	Z28	X29	Y29	Z29	X30	Y30	Z30	X31	Y31	Z31	X32	Y32	Z32	X33	Y33	Z33	X34	Y34	Z34	X35	Y35	Z35	X36	Y36	Z36	X37	Y37	Z37	X38	Y38	Z38	X39	Y39	Z39	X40	Y40	Z40	X41	Y41	Z41
																																																																																																																												
1	0.01	238.14365	1535.83618	-1824.96918	67.67026	1503.00461	-1818.95905	251.77486	1588.29269	-1939.84268	35.07567	1548.01773	-1904.76074	231.80756	1345.88501	-1956.16669	96.13485	1339.48303	-1955.12161	229.47384	1393.73016	-2078.8916	79.69041	1388.24463	-2069.07516	165.17767	1227.16759	-2149.12476	165.26386	1289.26178	-1907.98981	167.69279	1191.50131	-1859.69116	330.23678	1365.2861	-2011.72638	385.98701	1128.28445	-2044.89227	396.82137	1044.04297	-2018.06763	389.52354	971.93039	-2038.53836	337.82856	827.425	-1955.23727	409.61514	827.04063	-1960.60791	390.06832	769.87297	-1914.83459	-0.21932	1357.7356	-2001.26984	-50.49002	1149.05739	-2062.61597	-73.71185	1029.48814	-2013.61786	-76.57502	936.12106	-2003.55164	-5.13467	814.46632	-1929.67957	-78.93069	802.5972	-1923.22845	-59.91335	766.36887	-1891.99921	294.29255	956.32401	-1950.14786	27.68081	956.90598	-1949.04022	239.80129	1017.50214	-2118.09372	75.42044	1031.86134	-2121.008	291.67063	657.72987	-2094.03976	292.66666	506.38294	-2042.31598	243.16467	309.98346	-2021.30524	270.44531	159.82837	-2091.05881	211.86443	110.30423	-2143.54584	248.36445	77.76325	-1959.22516	30.07632	671.44211	-2094.10645	45.3793	506.57089	-1985.01556	58.6022	334.21959	-2010.99777	52.64124	143.06476	-2079.2688	103.05882	97.66559	-2149.45023	86.21536	76.4221	-1946.36703
2	0.043	240.29224	1536.86508	-1826.74088	69.40241	1504.64859	-1820.79254	254.08693	1588.7883	-1942.25555	37.3595	1548.97919	-1906.55365	233.68975	1345.3743	-1957.68448	97.85938	1339.45679	-1956.70288	231.40009	1393.15567	-2080.34348	81.6441	1387.9483	-2070.47226	166.92486	1226.58882	-2149.91776	167.09381	1289.13681	-1909.2247	169.57045	1191.57295	-1860.65872	332.18868	1364.55658	-2013.4317	387.99751	1126.88751	-2044.63699	398.4726	1043.14651	-2018.013	391.19186	970.88043	-2037.80594	338.96515	827.43057	-1952.78229	410.7756	826.70105	-1958.27759	391.09951	770.18204	-1911.81702	1.76451	1357.52716	-2002.71637	-48.50451	1148.80592	-2063.93555	-72.09473	1029.4236	-2014.86389	-75.16221	936.06392	-2004.57123	-4.29074	814.38667	-1930.1825	-78.14983	802.67342	-1924.10339	-59.3792	766.41319	-1892.75467	295.64672	956.3385	-1949.92172	28.29773	957.76985	-1946.50345	241.3629	1017.22343	-2118.56247	76.97915	1031.71295	-2121.61194	292.66788	657.49809	-2094.01535	293.43925	506.22108	-2042.267	243.55412	309.83292	-2021.27365	270.63469	159.75981	-2090.82916	211.97233	110.26263	-2143.57635	248.34566	77.71107	-1959.22943	30.97585	671.47324	-2094.32785	46.23313	506.76823	-1985.10849	59.11808	334.258	-2010.91888	52.84099	143.14502	-2079.23935	103.12965	97.67413	-2149.45633	86.24449	76.42858	-1946.38275
3	0.077	242.53656	1537.60086	-1828.27454	71.90328	1505.65582	-1821.8103	256.39862	1588.55804	-1942.82135	39.53047	1549.72015	-1907.90359	235.38816	1344.79111	-1958.90259	99.72215	1339.2572	-1958.06671	233.19633	1392.70325	-2081.3327	83.45605	1387.68768	-2071.6272	168.61036	1226.23123	-2150.66055	168.72017	1288.77365	-1910.40527	170.97057	1191.36566	-1861.56906	333.92223	1363.72772	-2014.64859	389.56776	1125.90042	-2045.12939	400.06538	1042.2744	-2018.09097	392.35062	969.6312	-2037.11761	339.88243	827.4041	-1950.77164	411.62464	826.32652	-1956.11359	391.79642	770.52025	-1909.04602	3.67524	1357.28775	-2003.98666	-46.69366	1148.69354	-2065.27649	-70.59952	1029.25644	-2015.88928	-73.95956	935.99228	-2005.46906	-3.38917	814.43718	-1930.68008	-77.20505	802.82936	-1924.62387	-58.53263	766.61118	-1893.10577	296.93596	956.33926	-1950.26978	30.53801	957.53403	-1949.71695	242.84616	1017.0285	-2119.14734	78.47672	1031.77834	-2122.4234	293.66356	657.26158	-2094.09012	294.11449	506.01154	-2042.2226	243.92433	309.71121	-2021.27716	270.68888	159.28885	-2091.66382	212.06703	110.17416	-2143.58963	248.29657	77.72833	-1959.23401	31.97792	671.50124	-2094.83932	47.076	506.93077	-1985.45517	60.0099	334.43466	-2011.60294	53.02315	143.21472	-2079.34174	103.25241	97.57264	-2149.48288	86.23234	76.44083	-1946.41846
4	0.11	244.76892	1538.34137	-1829.63409	74.10504	1506.11679	-1822.37823	258.3396	1588.75412	-1944.23187	41.569	1550.3215	-1908.74725	236.94767	1344.15161	-1959.96185	100.97223	1339.1745	-1959.19678	234.95325	1392.41531	-2082.17361	85.21533	1387.57324	-2072.60254	170.2898	1226.06323	-2151.36688	170.26415	1288.34381	-1911.26251	172.33288	1191.00746	-1862.50824	335.53017	1363.10883	-2015.48721	391.05541	1124.94812	-2045.57953	401.41014	1041.39297	-2018.1337	393.53504	968.582	-2036.62369	340.58876	827.27249	-1949.05914	412.17392	825.84351	-1954.38141	392.23259	770.70305	-1906.79688	5.42096	1357.12631	-2005.18707	-45.20946	1148.55064	-2066.56906	-69.58891	1029.33899	-2017.25342	-72.94352	935.97397	-2006.41693	-2.54793	814.43489	-1931.24435	-76.06675	803.06114	-1924.87015	-57.40592	766.98532	-1893.27271	298.16504	956.21025	-1950.70038	31.52057	957.45438	-1951.3678	244.39013	1016.90163	-2119.85352	80.04972	1031.77979	-2123.37311	294.72662	657.10052	-2094.41925	294.84213	505.91156	-2042.45682	244.24353	309.62173	-2021.44379	270.90738	159.15911	-2091.61179	212.21062	110.04636	-2143.7056	248.30427	77.73238	-1959.23752	33.00941	671.57356	-2095.58502	47.72962	507.14851	-1985.97321	60.29359	334.47418	-2011.79626	53.07944	143.25093	-2079.487	103.33218	97.40435	-2149.47144	86.2311	76.48129	-1946.46713
